<?xml version="1.0" encoding="utf-8"?>
<!-- Generator: Adobe Illustrator 28.2.0, SVG Export Plug-In . SVG Version: 6.00 Build 0)  -->
<svg version="1.1" id="Layer_1" xmlns="http://www.w3.org/2000/svg" xmlns:xlink="http://www.w3.org/1999/xlink" x="0px" y="0px"
	 viewBox="0 0 573 180" style="enable-background:new 0 0 573 180;" xml:space="preserve">
<style type="text/css">
	.st0{fill:#90002B;}
	.st1{fill:#A70236;}
	.st2{fill:#D31048;}
	.st3{fill:#FFFFFE;}
	.st4{fill:#2C2A26;}
	.st5{fill:#858581;}
</style>
<path class="st0" d="M167.7,90L88.8,11.2L61.4,50L10,90l49.7,33.1l29.1,45.8L167.7,90z"/>
<path class="st1" d="M88.8,11.2l0,78.8l78.8,0L88.8,11.2z"/>
<path class="st2" d="M10,90h78.8l0-78.8L10,90z"/>
<path class="st1" d="M88.8,168.8l0-78.8H10L88.8,168.8z"/>
<path class="st3" d="M94.5,36.5l-5.6,5.1l-5.6-5.1l5.6,5.6L94.5,36.5z M100.1,42.1L88.8,52.3L77.6,42.1l11.3,11.3L100.1,42.1z
	 M105.7,47.8L88.8,61.9L71.9,47.8l16.9,16.9L105.7,47.8z M111.4,53.4L88.8,73.8L66.3,53.4l22.5,25.3L111.4,53.4z M122.6,67.5
	L100.1,90l22.5,22.5L104.5,90L122.6,67.5z M111.4,90l16.9,16.9L114.2,90l14.1-16.9L111.4,90z M125.4,90l11.3,11.2L126.6,90
	l10.1-11.3L125.4,90z M136.7,90l5.6,5.6l-5.1-5.6l5.1-5.7L136.7,90z M77.6,90L55.1,67.5L73.1,90l-18.1,22.5L77.6,90z M66.3,90
	L49.4,73.1L63.5,90l-14.1,16.9L66.3,90z M55.1,90L43.8,78.7L53.9,90l-10.1,11.2L55.1,90z M43.8,90l-5.6-5.6l5.1,5.6l-5.1,5.6
	L43.8,90z M117,118.2L92.8,90L117,61.8L88.8,86L60.7,61.8L84.8,90l-24.2,28.2l28.1-24.2L117,118.2z M94.5,140.7l-5.6-5.6l-5.6,5.6
	l5.6-5.1L94.5,140.7z M100.1,135l-11.3-11.3L77.6,135l11.3-10.1L100.1,135z M105.7,129.4l-16.9-16.9l-16.9,16.9l16.9-14.1
	L105.7,129.4z M111.4,123.8L88.8,98.4l-22.5,25.3l22.5-20.4L111.4,123.8z"/>
<path class="st4" d="M560,79.3c0-9.2-7.2-13.2-12.9-16.4c-4.2-2.4-7.9-4.4-7.9-7.8c0-2.7,2.7-4.6,6.5-4.6c3.7,0,7.2,1.6,10.5,4.7
	l1.8,1.7V46l-0.5-0.3c-3.5-2.3-7.4-3.6-11.3-3.6c-9.5,0-15.7,5.4-15.7,13.8c0,7.6,6.4,11.5,12,14.9c4.7,2.8,8.8,5.3,8.8,9.3
	c0,1.9-1.8,4.9-6.7,4.9c-4.4,0-8.5-2.3-11.8-6.5l-2-2.5v12.4l0.4,0.3c4.2,3.1,8.7,4.6,14.1,4.6C553.9,93.4,560,87.5,560,79.3
	L560,79.3z M526.4,92.7v-8.3h-21.7V42.8h-9.1v50L526.4,92.7z M489.1,92.7v-8.3h-21.7V42.8h-9.1v50L489.1,92.7z M436.6,92.7h9.1v-50
	h-9.1V92.7z M391.4,92.7V71.9h24.7v20.8h9.1v-50h-9.1v20.8h-24.7V42.8h-9.1v50L391.4,92.7z M349.6,92.7h9.1v-50h-8l-15.5,19
	l-15.4-19h-8.1v50h9.1V57.4L334.1,74h2.2l13.3-16.7L349.6,92.7z M283.5,84.4V42.8h-9.1v50h30.8v-8.3L283.5,84.4z M244.9,56.8l6,13.5
	h-11.6L244.9,56.8z M229.6,92.7l6.1-14.1h19l6.4,14.1h9.4l-22.5-50.2h-6.3l-21.6,50.2H229.6z M207,63.7h-6.7V51.1h7
	c6.2,0,7.1,3.9,7.1,6.2C214.4,61.4,211.7,63.7,207,63.7L207,63.7z M207.3,42.8h-16.1v50h9.1V72.1h6.1c12.8,0,17.3-7.5,17.3-14.5
	C223.7,50.4,219.4,42.8,207.3,42.8L207.3,42.8z"/>
<path class="st5" d="M554,123.5c-2-1.1-3.7-2.1-3.7-3.6c0-1.2,1.2-2.1,3-2.1c1.7,0,3.4,0.7,4.9,2.2l0.9,0.9v-5.2l-0.2-0.2
	c-1.6-1.1-3.5-1.7-5.3-1.7c-4.4,0-7.4,2.6-7.4,6.5c0,3.6,3,5.4,5.6,7c2.2,1.3,4.1,2.5,4.1,4.3c0,0.9-0.8,2.3-3.1,2.3
	c-2,0-4-1.1-5.5-3l-1-1.3v5.9l0.2,0.2c2,1.5,4.1,2.2,6.6,2.2c4,0,6.8-2.8,6.8-6.6C560,126.9,556.7,125.1,554,123.5L554,123.5z
	 M513.8,114.1v4h7.8v19.5h4.3v-19.5h7.8v-4H513.8z M494.5,114.1v16.4l-14.5-16.4h-3.4v23.4h4.1v-16.3l14.2,16.3h3.6v-23.4H494.5z
	 M450.7,133.6v-5.9h9.2v-4h-9.2v-5.7h9.5v-4h-13.9v23.4h14.2v-4L450.7,133.6z M427.5,114.1l-7.2,8.9l-7.2-8.9h-3.8v23.4h4.3v-16.5
	l6.2,7.7h1.1l6.2-7.7v16.5h4.3v-23.4H427.5z M387.9,123.9h-3.1v-5.8h3.2c2.9,0,3.3,1.8,3.3,2.8C391.4,122.8,390.1,123.9,387.9,123.9
	L387.9,123.9z M388.1,114.1h-7.6v23.4h4.3v-9.7h2.8c6,0,8.1-3.5,8.1-6.8C395.8,117.7,393.7,114.1,388.1,114.1L388.1,114.1z
	 M354,133.8c-4.7,0-8.2-3.4-8.2-8c0-4.6,3.4-8,8.2-8c4.8,0,8.2,3.3,8.2,8C362.2,130.5,358.7,133.8,354,133.8z M354,113.8
	c-7.2,0-12.6,5.2-12.6,12c0,6.8,5.4,12,12.5,12c8.3,0,12.7-6.1,12.7-12C366.6,118.9,361.3,113.8,354,113.8L354,113.8z M319.3,133.6
	v-19.5h-4.3v23.4h14.5v-4L319.3,133.6z M290.3,133.6v-5.9h9.2v-4h-9.2v-5.7h9.5v-4H286v23.4h14.1v-4L290.3,133.6z M269.9,114.1
	l-6.4,14.9l-6.4-14.8h-4.4l10.2,23.6h1.4l10-23.6H269.9z M232.1,133.6v-5.9h9.2v-4h-9.2v-5.7h9.5v-4h-13.9v23.4H242v-4L232.1,133.6z
	 M208.5,125.9c0,2.9-1.8,7.7-8.4,7.7h-4.6v-15.5h4.4C206.3,118.1,208.5,122.1,208.5,125.9L208.5,125.9z M200.4,114.1h-9.3v23.4h9.3
	c8.1,0,12.5-6,12.5-11.7C213,120.2,209,114.1,200.4,114.1L200.4,114.1z"/>
</svg>
